<svg width="1100" height="300" viewBox="0 0 1100 300" fill="none" xmlns="http://www.w3.org/2000/svg">
<rect y="4" width="1100" height="292" rx="6" fill="black" fill-opacity="0.05" style="fill:black;fill-opacity:0.05;"/>
<g clip-path="url(#clip0_22_2417)">
<path d="M1271.11 61.3919C1410.14 84.3052 1368.89 788.61 1141.25 921.529C913.611 1054.45 351.389 1032.36 351.389 857.36C351.389 682.359 565.278 594.582 727.222 535C889.167 475.418 899.56 301.213 971.667 224.862C1049.58 142.36 1132.08 38.4786 1271.11 61.3919Z" fill="#D9D9D9" style="fill:#D9D9D9;fill:color(display-p3 0.8510 0.8510 0.8510);fill-opacity:1;"/>
<path fill-rule="evenodd" clip-rule="evenodd" d="M506.509 503.003L294.948 305.766L-35.4728 660.55L-62.305 635.561L172.815 383.105L86.2126 302.998L-41.5686 440.534L-68.4309 415.577L154.899 175.199L-56.1728 -21.5811L-56.868 -20.835L-83.6936 -45.8316L292.14 -449.165L318.965 -424.168L117.75 -208.23L219.744 -113.521L411.89 -320.678L425.332 -308.211L233.179 -101.046L328.939 -12.1263L592.609 -295.924L403.07 -472.129L428.035 -498.983L617.566 -322.786L732.125 -446.09L758.987 -421.133L644.421 -297.821L741.31 -207.748L934.398 -415.409L947.824 -402.925L754.737 -195.265L962.93 -1.7193L1288.24 -351.377L1315.09 -326.401L989.785 23.2461L1036.09 66.2945C1043.51 73.1885 1043.93 84.7888 1037.04 92.2045C1030.14 99.6202 1018.54 100.043 1011.13 93.1492L964.809 50.091L868.833 153.249C868.39 154.705 867.834 156.52 867.169 158.664C865.275 164.765 862.492 173.536 858.916 184.288C851.769 205.777 841.428 235.256 828.654 267.19C803.515 330.038 767.606 405.96 726.436 447.13C685.77 487.796 639.312 500.06 596.537 511.351L596.406 511.385C594.847 511.797 593.293 512.207 591.744 512.617C547.307 524.392 505.755 536.422 466.714 575.463L251.297 790.88L225.37 764.953L440.787 549.536C462.216 528.107 484.41 513.591 506.509 503.003ZM937.954 25.1256L729.769 -168.413L638.989 -70.7807L847 122.885L937.954 25.1256ZM829.383 156.581L799.087 128.375L501.609 448.304L544.165 487.979L543.959 488.201C557.03 483.934 569.891 480.476 582.353 477.174L584.817 476.521C629.055 464.808 666.932 454.78 700.509 421.203C735.728 385.984 769.332 316.767 794.61 253.573C807.045 222.486 817.138 193.719 824.123 172.717C826.145 166.637 827.905 161.214 829.383 156.581ZM785.669 115.882L617.56 -40.6327L395.072 198.26L564.359 353.894L785.669 115.882ZM625.57 -83.2734L716.342 -180.896L619.463 -270.959L528.798 -173.372L625.57 -83.2734ZM503.841 -146.51L590.724 -65.6181L524.745 5.22614L438.587 -76.2747L503.841 -146.51ZM426.108 -62.843L512.25 18.6426L360.577 181.498L273.648 101.255L426.108 -62.843ZM261.169 114.687L348.082 194.914L293.119 253.931L206.675 173.34L261.169 114.687ZM181.718 200.203L268.129 280.763L197.804 356.273L111.17 276.136L181.718 200.203ZM382.577 211.676L319.938 278.934L488.199 435.802L551.875 367.321L382.577 211.676ZM316.46 1.30478L179.856 148.337L33.574 11.9593L170.061 -134.637L316.46 1.30478ZM156.626 -147.112L20.1643 -0.542419L-31.1762 -48.4067L105.252 -194.817L156.626 -147.112Z" fill="white" style="fill:white;fill-opacity:1;"/>
</g>
<path d="M461.703 162.625V174H459.742V162.625H461.703ZM466.344 167.602V169.156H461.203V167.602H466.344ZM466.992 162.625V164.188H461.203V162.625H466.992ZM470.383 165.547V174H468.492V165.547H470.383ZM468.367 163.328C468.367 163.042 468.461 162.805 468.648 162.617C468.841 162.424 469.107 162.328 469.445 162.328C469.779 162.328 470.042 162.424 470.234 162.617C470.427 162.805 470.523 163.042 470.523 163.328C470.523 163.609 470.427 163.844 470.234 164.031C470.042 164.219 469.779 164.312 469.445 164.312C469.107 164.312 468.841 164.219 468.648 164.031C468.461 163.844 468.367 163.609 468.367 163.328ZM474.312 167.352V174H472.43V165.547H474.203L474.312 167.352ZM473.977 169.461L473.367 169.453C473.372 168.854 473.456 168.305 473.617 167.805C473.784 167.305 474.013 166.875 474.305 166.516C474.602 166.156 474.956 165.88 475.367 165.688C475.779 165.49 476.237 165.391 476.742 165.391C477.148 165.391 477.516 165.448 477.844 165.562C478.177 165.672 478.461 165.852 478.695 166.102C478.935 166.352 479.117 166.677 479.242 167.078C479.367 167.474 479.43 167.961 479.43 168.539V174H477.539V168.531C477.539 168.125 477.479 167.805 477.359 167.57C477.245 167.331 477.076 167.161 476.852 167.062C476.633 166.958 476.359 166.906 476.031 166.906C475.708 166.906 475.419 166.974 475.164 167.109C474.909 167.245 474.693 167.43 474.516 167.664C474.344 167.898 474.211 168.169 474.117 168.477C474.023 168.784 473.977 169.112 473.977 169.461ZM486.508 172.25V162H488.398V174H486.688L486.508 172.25ZM481.008 169.867V169.703C481.008 169.062 481.083 168.479 481.234 167.953C481.385 167.422 481.604 166.966 481.891 166.586C482.177 166.201 482.526 165.906 482.938 165.703C483.349 165.495 483.812 165.391 484.328 165.391C484.839 165.391 485.286 165.49 485.672 165.688C486.057 165.885 486.385 166.169 486.656 166.539C486.927 166.904 487.143 167.341 487.305 167.852C487.466 168.357 487.581 168.919 487.648 169.539V170.062C487.581 170.667 487.466 171.219 487.305 171.719C487.143 172.219 486.927 172.651 486.656 173.016C486.385 173.38 486.055 173.661 485.664 173.859C485.279 174.057 484.828 174.156 484.312 174.156C483.802 174.156 483.341 174.049 482.93 173.836C482.523 173.622 482.177 173.323 481.891 172.938C481.604 172.552 481.385 172.099 481.234 171.578C481.083 171.052 481.008 170.482 481.008 169.867ZM482.891 169.703V169.867C482.891 170.253 482.924 170.612 482.992 170.945C483.065 171.279 483.177 171.573 483.328 171.828C483.479 172.078 483.674 172.276 483.914 172.422C484.159 172.562 484.451 172.633 484.789 172.633C485.216 172.633 485.568 172.539 485.844 172.352C486.12 172.164 486.336 171.911 486.492 171.594C486.654 171.271 486.763 170.911 486.82 170.516V169.102C486.789 168.794 486.724 168.508 486.625 168.242C486.531 167.977 486.404 167.745 486.242 167.547C486.081 167.344 485.88 167.188 485.641 167.078C485.406 166.964 485.128 166.906 484.805 166.906C484.461 166.906 484.169 166.979 483.93 167.125C483.69 167.271 483.492 167.471 483.336 167.727C483.185 167.982 483.073 168.279 483 168.617C482.927 168.956 482.891 169.318 482.891 169.703ZM499.438 172.008V165.547H501.328V174H499.547L499.438 172.008ZM499.703 170.25L500.336 170.234C500.336 170.802 500.273 171.326 500.148 171.805C500.023 172.279 499.831 172.693 499.57 173.047C499.31 173.396 498.977 173.669 498.57 173.867C498.164 174.06 497.677 174.156 497.109 174.156C496.698 174.156 496.32 174.096 495.977 173.977C495.633 173.857 495.336 173.672 495.086 173.422C494.841 173.172 494.651 172.846 494.516 172.445C494.38 172.044 494.312 171.565 494.312 171.008V165.547H496.195V171.023C496.195 171.331 496.232 171.589 496.305 171.797C496.378 172 496.477 172.164 496.602 172.289C496.727 172.414 496.872 172.503 497.039 172.555C497.206 172.607 497.383 172.633 497.57 172.633C498.107 172.633 498.529 172.529 498.836 172.32C499.148 172.107 499.37 171.82 499.5 171.461C499.635 171.102 499.703 170.698 499.703 170.25ZM508 171.711C508 171.523 507.953 171.354 507.859 171.203C507.766 171.047 507.586 170.906 507.32 170.781C507.06 170.656 506.674 170.542 506.164 170.438C505.716 170.339 505.305 170.221 504.93 170.086C504.56 169.945 504.242 169.776 503.977 169.578C503.711 169.38 503.505 169.146 503.359 168.875C503.214 168.604 503.141 168.292 503.141 167.938C503.141 167.594 503.216 167.268 503.367 166.961C503.518 166.654 503.734 166.383 504.016 166.148C504.297 165.914 504.638 165.729 505.039 165.594C505.445 165.458 505.898 165.391 506.398 165.391C507.107 165.391 507.714 165.51 508.219 165.75C508.729 165.984 509.12 166.305 509.391 166.711C509.661 167.112 509.797 167.565 509.797 168.07H507.914C507.914 167.846 507.857 167.638 507.742 167.445C507.633 167.247 507.466 167.089 507.242 166.969C507.018 166.844 506.737 166.781 506.398 166.781C506.076 166.781 505.807 166.833 505.594 166.938C505.385 167.036 505.229 167.167 505.125 167.328C505.026 167.49 504.977 167.667 504.977 167.859C504.977 168 505.003 168.128 505.055 168.242C505.112 168.352 505.206 168.453 505.336 168.547C505.466 168.635 505.643 168.719 505.867 168.797C506.096 168.875 506.383 168.951 506.727 169.023C507.372 169.159 507.927 169.333 508.391 169.547C508.859 169.755 509.219 170.026 509.469 170.359C509.719 170.688 509.844 171.104 509.844 171.609C509.844 171.984 509.763 172.328 509.602 172.641C509.445 172.948 509.216 173.216 508.914 173.445C508.612 173.669 508.25 173.844 507.828 173.969C507.411 174.094 506.943 174.156 506.422 174.156C505.656 174.156 505.008 174.021 504.477 173.75C503.945 173.474 503.542 173.122 503.266 172.695C502.995 172.263 502.859 171.815 502.859 171.352H504.68C504.701 171.701 504.797 171.979 504.969 172.188C505.146 172.391 505.365 172.539 505.625 172.633C505.891 172.721 506.164 172.766 506.445 172.766C506.784 172.766 507.068 172.721 507.297 172.633C507.526 172.539 507.701 172.414 507.82 172.258C507.94 172.096 508 171.914 508 171.711ZM515.117 169.867V169.688C515.117 169.078 515.206 168.513 515.383 167.992C515.56 167.466 515.815 167.01 516.148 166.625C516.487 166.234 516.898 165.932 517.383 165.719C517.872 165.5 518.424 165.391 519.039 165.391C519.659 165.391 520.211 165.5 520.695 165.719C521.185 165.932 521.599 166.234 521.938 166.625C522.276 167.01 522.534 167.466 522.711 167.992C522.888 168.513 522.977 169.078 522.977 169.688V169.867C522.977 170.477 522.888 171.042 522.711 171.562C522.534 172.083 522.276 172.539 521.938 172.93C521.599 173.315 521.188 173.617 520.703 173.836C520.219 174.049 519.669 174.156 519.055 174.156C518.435 174.156 517.88 174.049 517.391 173.836C516.906 173.617 516.495 173.315 516.156 172.93C515.818 172.539 515.56 172.083 515.383 171.562C515.206 171.042 515.117 170.477 515.117 169.867ZM517 169.688V169.867C517 170.247 517.039 170.607 517.117 170.945C517.195 171.284 517.318 171.581 517.484 171.836C517.651 172.091 517.865 172.292 518.125 172.438C518.385 172.583 518.695 172.656 519.055 172.656C519.404 172.656 519.706 172.583 519.961 172.438C520.221 172.292 520.435 172.091 520.602 171.836C520.768 171.581 520.891 171.284 520.969 170.945C521.052 170.607 521.094 170.247 521.094 169.867V169.688C521.094 169.312 521.052 168.958 520.969 168.625C520.891 168.286 520.766 167.987 520.594 167.727C520.427 167.466 520.214 167.263 519.953 167.117C519.698 166.966 519.393 166.891 519.039 166.891C518.685 166.891 518.378 166.966 518.117 167.117C517.862 167.263 517.651 167.466 517.484 167.727C517.318 167.987 517.195 168.286 517.117 168.625C517.039 168.958 517 169.312 517 169.688ZM526.422 167.352V174H524.539V165.547H526.312L526.422 167.352ZM526.086 169.461L525.477 169.453C525.482 168.854 525.565 168.305 525.727 167.805C525.893 167.305 526.122 166.875 526.414 166.516C526.711 166.156 527.065 165.88 527.477 165.688C527.888 165.49 528.346 165.391 528.852 165.391C529.258 165.391 529.625 165.448 529.953 165.562C530.286 165.672 530.57 165.852 530.805 166.102C531.044 166.352 531.227 166.677 531.352 167.078C531.477 167.474 531.539 167.961 531.539 168.539V174H529.648V168.531C529.648 168.125 529.589 167.805 529.469 167.57C529.354 167.331 529.185 167.161 528.961 167.062C528.742 166.958 528.469 166.906 528.141 166.906C527.818 166.906 527.529 166.974 527.273 167.109C527.018 167.245 526.802 167.43 526.625 167.664C526.453 167.898 526.32 168.169 526.227 168.477C526.133 168.784 526.086 169.112 526.086 169.461ZM541.32 165.547V166.922H536.555V165.547H541.32ZM537.93 163.477H539.812V171.664C539.812 171.924 539.849 172.125 539.922 172.266C540 172.401 540.107 172.492 540.242 172.539C540.378 172.586 540.536 172.609 540.719 172.609C540.849 172.609 540.974 172.602 541.094 172.586C541.214 172.57 541.31 172.555 541.383 172.539L541.391 173.977C541.234 174.023 541.052 174.065 540.844 174.102C540.641 174.138 540.406 174.156 540.141 174.156C539.708 174.156 539.326 174.081 538.992 173.93C538.659 173.773 538.398 173.521 538.211 173.172C538.023 172.823 537.93 172.359 537.93 171.781V163.477ZM544.633 162V174H542.758V162H544.633ZM544.305 169.461L543.695 169.453C543.701 168.87 543.781 168.331 543.938 167.836C544.099 167.341 544.323 166.911 544.609 166.547C544.901 166.177 545.25 165.893 545.656 165.695C546.062 165.492 546.513 165.391 547.008 165.391C547.424 165.391 547.799 165.448 548.133 165.562C548.471 165.677 548.763 165.862 549.008 166.117C549.253 166.367 549.438 166.695 549.562 167.102C549.693 167.503 549.758 167.992 549.758 168.57V174H547.867V168.555C547.867 168.148 547.807 167.826 547.688 167.586C547.573 167.346 547.404 167.174 547.18 167.07C546.956 166.961 546.682 166.906 546.359 166.906C546.021 166.906 545.721 166.974 545.461 167.109C545.206 167.245 544.992 167.43 544.82 167.664C544.648 167.898 544.518 168.169 544.43 168.477C544.346 168.784 544.305 169.112 544.305 169.461ZM555.391 174.156C554.766 174.156 554.201 174.055 553.695 173.852C553.195 173.643 552.768 173.354 552.414 172.984C552.065 172.615 551.797 172.18 551.609 171.68C551.422 171.18 551.328 170.641 551.328 170.062V169.75C551.328 169.089 551.424 168.49 551.617 167.953C551.81 167.417 552.078 166.958 552.422 166.578C552.766 166.193 553.172 165.898 553.641 165.695C554.109 165.492 554.617 165.391 555.164 165.391C555.768 165.391 556.297 165.492 556.75 165.695C557.203 165.898 557.578 166.185 557.875 166.555C558.177 166.919 558.401 167.354 558.547 167.859C558.698 168.365 558.773 168.922 558.773 169.531V170.336H552.242V168.984H556.914V168.836C556.904 168.497 556.836 168.18 556.711 167.883C556.591 167.586 556.406 167.346 556.156 167.164C555.906 166.982 555.573 166.891 555.156 166.891C554.844 166.891 554.565 166.958 554.32 167.094C554.081 167.224 553.88 167.414 553.719 167.664C553.557 167.914 553.432 168.216 553.344 168.57C553.26 168.919 553.219 169.312 553.219 169.75V170.062C553.219 170.432 553.268 170.776 553.367 171.094C553.471 171.406 553.622 171.68 553.82 171.914C554.018 172.148 554.258 172.333 554.539 172.469C554.82 172.599 555.141 172.664 555.5 172.664C555.953 172.664 556.357 172.573 556.711 172.391C557.065 172.208 557.372 171.951 557.633 171.617L558.625 172.578C558.443 172.844 558.206 173.099 557.914 173.344C557.622 173.583 557.266 173.779 556.844 173.93C556.427 174.081 555.943 174.156 555.391 174.156ZM566.109 167.266V174H564.227V165.547H566L566.109 167.266ZM565.805 169.461L565.164 169.453C565.164 168.87 565.237 168.331 565.383 167.836C565.529 167.341 565.742 166.911 566.023 166.547C566.305 166.177 566.654 165.893 567.07 165.695C567.492 165.492 567.979 165.391 568.531 165.391C568.917 165.391 569.268 165.448 569.586 165.562C569.909 165.672 570.188 165.846 570.422 166.086C570.661 166.326 570.844 166.633 570.969 167.008C571.099 167.383 571.164 167.836 571.164 168.367V174H569.281V168.531C569.281 168.12 569.219 167.797 569.094 167.562C568.974 167.328 568.799 167.161 568.57 167.062C568.346 166.958 568.078 166.906 567.766 166.906C567.411 166.906 567.109 166.974 566.859 167.109C566.615 167.245 566.414 167.43 566.258 167.664C566.102 167.898 565.987 168.169 565.914 168.477C565.841 168.784 565.805 169.112 565.805 169.461ZM571.047 168.961L570.164 169.156C570.164 168.646 570.234 168.164 570.375 167.711C570.521 167.253 570.732 166.852 571.008 166.508C571.289 166.159 571.635 165.885 572.047 165.688C572.458 165.49 572.93 165.391 573.461 165.391C573.893 165.391 574.279 165.451 574.617 165.57C574.961 165.685 575.253 165.867 575.492 166.117C575.732 166.367 575.914 166.693 576.039 167.094C576.164 167.49 576.227 167.969 576.227 168.531V174H574.336V168.523C574.336 168.096 574.273 167.766 574.148 167.531C574.029 167.297 573.857 167.135 573.633 167.047C573.409 166.953 573.141 166.906 572.828 166.906C572.536 166.906 572.279 166.961 572.055 167.07C571.836 167.174 571.651 167.323 571.5 167.516C571.349 167.703 571.234 167.919 571.156 168.164C571.083 168.409 571.047 168.674 571.047 168.961ZM582.93 172.305V168.273C582.93 167.971 582.875 167.711 582.766 167.492C582.656 167.273 582.49 167.104 582.266 166.984C582.047 166.865 581.771 166.805 581.438 166.805C581.13 166.805 580.865 166.857 580.641 166.961C580.417 167.065 580.242 167.206 580.117 167.383C579.992 167.56 579.93 167.76 579.93 167.984H578.055C578.055 167.651 578.135 167.328 578.297 167.016C578.458 166.703 578.693 166.424 579 166.18C579.307 165.935 579.674 165.742 580.102 165.602C580.529 165.461 581.008 165.391 581.539 165.391C582.174 165.391 582.737 165.497 583.227 165.711C583.721 165.924 584.109 166.247 584.391 166.68C584.677 167.107 584.82 167.643 584.82 168.289V172.047C584.82 172.432 584.846 172.779 584.898 173.086C584.956 173.388 585.036 173.651 585.141 173.875V174H583.211C583.122 173.797 583.052 173.539 583 173.227C582.953 172.909 582.93 172.602 582.93 172.305ZM583.203 168.859L583.219 170.023H581.867C581.518 170.023 581.211 170.057 580.945 170.125C580.68 170.188 580.458 170.281 580.281 170.406C580.104 170.531 579.971 170.682 579.883 170.859C579.794 171.036 579.75 171.237 579.75 171.461C579.75 171.685 579.802 171.891 579.906 172.078C580.01 172.26 580.161 172.404 580.359 172.508C580.562 172.612 580.807 172.664 581.094 172.664C581.479 172.664 581.815 172.586 582.102 172.43C582.393 172.268 582.622 172.073 582.789 171.844C582.956 171.609 583.044 171.388 583.055 171.18L583.664 172.016C583.602 172.229 583.495 172.458 583.344 172.703C583.193 172.948 582.995 173.182 582.75 173.406C582.51 173.625 582.221 173.805 581.883 173.945C581.549 174.086 581.164 174.156 580.727 174.156C580.174 174.156 579.682 174.047 579.25 173.828C578.818 173.604 578.479 173.305 578.234 172.93C577.99 172.549 577.867 172.12 577.867 171.641C577.867 171.193 577.951 170.797 578.117 170.453C578.289 170.104 578.539 169.812 578.867 169.578C579.201 169.344 579.607 169.167 580.086 169.047C580.565 168.922 581.112 168.859 581.727 168.859H583.203ZM588.68 167.172V177.25H586.797V165.547H588.531L588.68 167.172ZM594.188 169.695V169.859C594.188 170.474 594.115 171.044 593.969 171.57C593.828 172.091 593.617 172.547 593.336 172.938C593.06 173.323 592.719 173.622 592.312 173.836C591.906 174.049 591.438 174.156 590.906 174.156C590.38 174.156 589.919 174.06 589.523 173.867C589.133 173.669 588.802 173.391 588.531 173.031C588.26 172.672 588.042 172.25 587.875 171.766C587.714 171.276 587.599 170.74 587.531 170.156V169.523C587.599 168.904 587.714 168.341 587.875 167.836C588.042 167.331 588.26 166.896 588.531 166.531C588.802 166.167 589.133 165.885 589.523 165.688C589.914 165.49 590.37 165.391 590.891 165.391C591.422 165.391 591.893 165.495 592.305 165.703C592.716 165.906 593.062 166.198 593.344 166.578C593.625 166.953 593.836 167.406 593.977 167.938C594.117 168.464 594.188 169.049 594.188 169.695ZM592.305 169.859V169.695C592.305 169.305 592.268 168.943 592.195 168.609C592.122 168.271 592.008 167.974 591.852 167.719C591.695 167.464 591.495 167.266 591.25 167.125C591.01 166.979 590.721 166.906 590.383 166.906C590.049 166.906 589.763 166.964 589.523 167.078C589.284 167.188 589.083 167.341 588.922 167.539C588.76 167.737 588.635 167.969 588.547 168.234C588.458 168.495 588.396 168.779 588.359 169.086V170.602C588.422 170.977 588.529 171.32 588.68 171.633C588.831 171.945 589.044 172.195 589.32 172.383C589.602 172.565 589.961 172.656 590.398 172.656C590.737 172.656 591.026 172.583 591.266 172.438C591.505 172.292 591.701 172.091 591.852 171.836C592.008 171.576 592.122 171.276 592.195 170.938C592.268 170.599 592.305 170.24 592.305 169.859ZM599.781 162H601.664V172.195L601.484 174H599.781V162ZM607.18 169.695V169.859C607.18 170.484 607.109 171.06 606.969 171.586C606.833 172.107 606.625 172.56 606.344 172.945C606.068 173.331 605.724 173.63 605.312 173.844C604.906 174.052 604.435 174.156 603.898 174.156C603.372 174.156 602.914 174.057 602.523 173.859C602.133 173.661 601.805 173.38 601.539 173.016C601.279 172.651 601.068 172.216 600.906 171.711C600.745 171.206 600.63 170.648 600.562 170.039V169.516C600.63 168.901 600.745 168.344 600.906 167.844C601.068 167.339 601.279 166.904 601.539 166.539C601.805 166.169 602.13 165.885 602.516 165.688C602.906 165.49 603.362 165.391 603.883 165.391C604.424 165.391 604.901 165.495 605.312 165.703C605.729 165.911 606.076 166.208 606.352 166.594C606.628 166.974 606.833 167.427 606.969 167.953C607.109 168.479 607.18 169.06 607.18 169.695ZM605.297 169.859V169.695C605.297 169.315 605.266 168.958 605.203 168.625C605.141 168.286 605.036 167.99 604.891 167.734C604.75 167.479 604.557 167.279 604.312 167.133C604.073 166.982 603.773 166.906 603.414 166.906C603.081 166.906 602.794 166.964 602.555 167.078C602.315 167.193 602.115 167.349 601.953 167.547C601.792 167.745 601.664 167.974 601.57 168.234C601.482 168.495 601.422 168.776 601.391 169.078V170.492C601.438 170.883 601.536 171.242 601.688 171.57C601.844 171.893 602.062 172.154 602.344 172.352C602.625 172.544 602.987 172.641 603.43 172.641C603.779 172.641 604.073 172.57 604.312 172.43C604.552 172.289 604.742 172.094 604.883 171.844C605.029 171.589 605.133 171.292 605.195 170.953C605.263 170.615 605.297 170.25 605.297 169.859ZM612.5 174.156C611.875 174.156 611.31 174.055 610.805 173.852C610.305 173.643 609.878 173.354 609.523 172.984C609.174 172.615 608.906 172.18 608.719 171.68C608.531 171.18 608.438 170.641 608.438 170.062V169.75C608.438 169.089 608.534 168.49 608.727 167.953C608.919 167.417 609.188 166.958 609.531 166.578C609.875 166.193 610.281 165.898 610.75 165.695C611.219 165.492 611.727 165.391 612.273 165.391C612.878 165.391 613.406 165.492 613.859 165.695C614.312 165.898 614.688 166.185 614.984 166.555C615.286 166.919 615.51 167.354 615.656 167.859C615.807 168.365 615.883 168.922 615.883 169.531V170.336H609.352V168.984H614.023V168.836C614.013 168.497 613.945 168.18 613.82 167.883C613.701 167.586 613.516 167.346 613.266 167.164C613.016 166.982 612.682 166.891 612.266 166.891C611.953 166.891 611.674 166.958 611.43 167.094C611.19 167.224 610.99 167.414 610.828 167.664C610.667 167.914 610.542 168.216 610.453 168.57C610.37 168.919 610.328 169.312 610.328 169.75V170.062C610.328 170.432 610.378 170.776 610.477 171.094C610.581 171.406 610.732 171.68 610.93 171.914C611.128 172.148 611.367 172.333 611.648 172.469C611.93 172.599 612.25 172.664 612.609 172.664C613.062 172.664 613.466 172.573 613.82 172.391C614.174 172.208 614.482 171.951 614.742 171.617L615.734 172.578C615.552 172.844 615.315 173.099 615.023 173.344C614.732 173.583 614.375 173.779 613.953 173.93C613.536 174.081 613.052 174.156 612.5 174.156ZM619.367 162V174H617.477V162H619.367ZM621.07 169.867V169.688C621.07 169.078 621.159 168.513 621.336 167.992C621.513 167.466 621.768 167.01 622.102 166.625C622.44 166.234 622.852 165.932 623.336 165.719C623.826 165.5 624.378 165.391 624.992 165.391C625.612 165.391 626.164 165.5 626.648 165.719C627.138 165.932 627.552 166.234 627.891 166.625C628.229 167.01 628.487 167.466 628.664 167.992C628.841 168.513 628.93 169.078 628.93 169.688V169.867C628.93 170.477 628.841 171.042 628.664 171.562C628.487 172.083 628.229 172.539 627.891 172.93C627.552 173.315 627.141 173.617 626.656 173.836C626.172 174.049 625.622 174.156 625.008 174.156C624.388 174.156 623.833 174.049 623.344 173.836C622.859 173.617 622.448 173.315 622.109 172.93C621.771 172.539 621.513 172.083 621.336 171.562C621.159 171.042 621.07 170.477 621.07 169.867ZM622.953 169.688V169.867C622.953 170.247 622.992 170.607 623.07 170.945C623.148 171.284 623.271 171.581 623.438 171.836C623.604 172.091 623.818 172.292 624.078 172.438C624.339 172.583 624.648 172.656 625.008 172.656C625.357 172.656 625.659 172.583 625.914 172.438C626.174 172.292 626.388 172.091 626.555 171.836C626.721 171.581 626.844 171.284 626.922 170.945C627.005 170.607 627.047 170.247 627.047 169.867V169.688C627.047 169.312 627.005 168.958 626.922 168.625C626.844 168.286 626.719 167.987 626.547 167.727C626.38 167.466 626.167 167.263 625.906 167.117C625.651 166.966 625.346 166.891 624.992 166.891C624.638 166.891 624.331 166.966 624.07 167.117C623.815 167.263 623.604 167.466 623.438 167.727C623.271 167.987 623.148 168.286 623.07 168.625C622.992 168.958 622.953 169.312 622.953 169.688ZM632.805 172.125L634.758 165.547H635.961L635.633 167.516L633.664 174H632.586L632.805 172.125ZM631.656 165.547L633.18 172.156L633.305 174H632.102L629.812 165.547H631.656ZM637.789 172.078L639.266 165.547H641.102L638.82 174H637.617L637.789 172.078ZM636.164 165.547L638.094 172.047L638.336 174H637.258L635.266 167.508L634.938 165.547H636.164Z" fill="black" style="fill:black;fill-opacity:1;"/>
<path fill-rule="evenodd" clip-rule="evenodd" d="M550.835 147.937C552.215 146.08 555.021 142.261 556.201 140.334C557.145 138.795 558 137.129 558 135.171C558 130.658 554.418 127 549.999 127C545.582 127 542 130.658 542 135.171C542 137.147 542.84 138.84 543.827 140.37C545.028 142.234 547.859 146.072 549.247 147.937C549.644 148.471 550.438 148.471 550.835 147.937ZM550 138C551.657 138 553 136.656 553 135.001C553 133.344 551.657 132 550 132C548.343 132 547 133.344 547 135.001C547 136.656 548.343 138 550 138Z" fill="black" fill-opacity="0.3" style="fill:black;fill-opacity:0.3;"/>
<defs>
<clipPath id="clip0_22_2417">
<rect width="1100" height="1100" fill="white" style="fill:white;fill-opacity:1;" transform="translate(0 -400)"/>
</clipPath>
</defs>
</svg>
